# xmcd
#
# Track frame offsets:
#	187
#	11085
#	21387
#	33762
#	44577
#	55787
#	67002
#	77882
#	90365
#	106647
#	121032
#	132432
#	143795
#	153882
#	165900
#	175762
#	188125
#	201057
#	213145
#	226067
#	240170
#	255112
#
# Disc length: 3572 seconds
#
# Revision: 2
# Processed by: cddbd v1.5.2PL0 Copyright (c) Steve Scherf et al.
# Submitted via: dBpowerAMP V4.0
#
DISCID=060df216
DTITLE=Eddy Arnold - The Best Of Eddy Arnold
DYEAR=1900
DGENRE=country
TTITLE0=I Can't Stop Loving You
TTITLE1=Anytime
TTITLE2=Cattle Call
TTITLE3=Moonlight And Roses
TTITLE4=Tennessee Waltz
TTITLE5=Sixteen Tons
TTITLE6=Bouquet Of Roses
TTITLE7=You Don't Know Me
TTITLE8=Cool Water
TTITLE9=Your Cheatin' Heart
TTITLE10=Till I Waltz Again With You
TTITLE11=Turn The World Around
TTITLE12=The Last Wors In Lonesome Is Me
TTITLE13=Tumbling Tumbleweeds
TTITLE14=What's he Doin In My World
TTITLE15=Nobody's Darlin But Mine
TTITLE16=I Really Don't Want To Know
TTITLE17=Make The World Go Away
TTITLE18=Just A Little Lovin (Will Go A Long Way)
TTITLE19=The Streets Of Laredo
TTITLE20=For The Good Times
TTITLE21=May The Good Lord Bless You And Keep You
EXTD=
EXTT0=
EXTT1=
EXTT2=
EXTT3=
EXTT4=
EXTT5=
EXTT6=
EXTT7=
EXTT8=
EXTT9=
EXTT10=
EXTT11=
EXTT12=
EXTT13=
EXTT14=
EXTT15=
EXTT16=
EXTT17=
EXTT18=
EXTT19=
EXTT20=
EXTT21=
PLAYORDER=
